Coordinates
version=1
nRows=26
nColumns=24
inDegrees=yes

Units are S.I. units (second, meters, Newtons, ...)
If the header above contains a line with 'inDegrees', this indicates whether rotational values are in degrees (yes) or radians (no).

endheader
time	pelvis_tilt	pelvis_list	pelvis_rotation	pelvis_tx	pelvis_ty	pelvis_tz	hip_flexion_r	hip_adduction_r	hip_rotation_r	knee_angle_r	ankle_angle_r	subtalar_angle_r	mtp_angle_r	hip_flexion_l	hip_adduction_l	hip_rotation_l	knee_angle_l	ankle_angle_l	subtalar_angle_l	mtp_angle_l	lumbar_extension	lumbar_bending	lumbar_rotation
      4.10000000	     13.08499574	      0.46994353	     -0.62307421	      0.44238261	      0.97551459	     -0.02100275	    -22.49428461	     -2.11748220	     -5.75629479	     12.46513618	     -4.96399618	      0.00000000	      0.00000000	    -19.87595504	     -1.25704212	      2.46506938	      6.07205160	      0.50619558	      0.00000000	      0.00000000	    -21.76981303	     -2.78526493	     -2.55452337
      4.11000000	     12.52789775	      0.50162394	     -0.57954702	      0.44309051	      0.97491010	     -0.02121578	    -21.92211384	     -2.14258511	     -5.79282185	     12.44664053	     -4.97391978	      0.00000000	      0.00000000	    -19.28545885	     -1.23261235	      2.54697501	      6.03781589	      0.51174817	      0.00000000	      0.00000000	    -20.84974511	     -2.74176242	     -2.60473433
      4.12000000	     12.50317630	      0.49923498	     -0.57814240	      0.44368376	      0.97485760	     -0.02130423	    -21.93292620	     -2.14202921	     -5.79316713	     12.44175552	     -4.97193528	      0.00000000	      0.00000000	    -19.29563734	     -1.22906449	      2.54641870	      6.03346629	      0.51271218	      0.00000000	      0.00000000	    -20.84526904	     -2.74076950	     -2.60510579
      4.13000000	     12.44058964	      0.51743783	     -0.55121887	      0.44460083	      0.97464797	     -0.02148897	    -21.97123746	     -2.15586658	     -5.82196031	     12.51693676	     -4.87236611	      0.00000000	      0.00000000	    -19.33810764	     -1.20103330	      2.52993632	      6.13770184	      0.56674371	      0.00000000	      0.00000000	    -20.52819983	     -2.68123607	     -2.64236956
      4.14000000	     12.41445789	      0.51430683	     -0.54871729	      0.44520016	      0.97459704	     -0.02159372	    -21.97978353	     -2.15630885	     -5.82191828	     12.51098876	     -4.87252870	      0.00000000	      0.00000000	    -19.34853391	     -1.19827383	      2.53100530	      6.13381211	      0.56548854	      0.00000000	      0.00000000	    -20.52251343	     -2.68083502	     -2.64295775
      4.15000000	     12.30810528	      0.52940407	     -0.51347381	      0.44611437	      0.97436244	     -0.02179289	    -21.95861971	     -2.16528760	     -5.85926411	     12.56507231	     -4.81127004	      0.00000000	      0.00000000	    -19.36642270	     -1.18387111	      2.56783092	      6.28940991	      0.54489116	      0.00000000	      0.00000000	    -20.12725849	     -2.62836426	     -2.69176129
      4.16000000	     12.28181607	      0.52616023	     -0.50936526	      0.44671214	      0.97432014	     -0.02190291	    -21.96656480	     -2.16590892	     -5.85921657	     12.55838606	     -4.81201769	     -0.00000000	      0.00000000	    -19.37650450	     -1.18117971	      2.56817939	      6.28464085	      0.54344453	      0.00000000	      0.00000000	    -20.12538978	     -2.62828395	     -2.69189162
      4.17000000	     12.18335699	      0.54666603	     -0.45164367	      0.44750880	      0.97413658	     -0.02215584	    -21.93070646	     -2.17287778	     -5.92660628	     12.58284177	     -4.75795150	      0.00000000	      0.00000000	    -19.38256311	     -1.16380733	      2.59814066	      6.42462774	      0.50825843	      0.00000000	      0.00000000	    -19.82659389	     -2.57110371	     -2.73071997
      4.18000000	     12.15892620	      0.54284791	     -0.44698648	      0.44807521	      0.97409745	     -0.02227666	    -21.93968212	     -2.17414444	     -5.92685487	     12.57522408	     -4.75877491	      0.00000000	      0.00000000	    -19.39128948	     -1.16160377	      2.59858258	      6.42018135	      0.50668885	      0.00000000	      0.00000000	    -19.82508951	     -2.57110824	     -2.73084966
      4.19000000	     12.07434481	      0.56368982	     -0.35358515	      0.44878604	      0.97396648	     -0.02255022	    -21.90541684	     -2.16661085	     -6.03932792	     12.56761908	     -4.70359092	      0.00000000	      0.00000000	    -19.38699436	     -1.15918815	      2.67045724	      6.53265655	      0.44067160	      0.00000000	      0.00000000	    -19.55195280	     -2.51376817	     -2.77096369
      4.20000000	     12.05222869	      0.55986392	     -0.34463431	      0.44932962	      0.97392891	     -0.02271715	    -21.91230110	     -2.16828530	     -6.04022083	     12.56077654	     -4.70428266	      0.00000000	      0.00000000	    -19.39688880	     -1.15477509	      2.67036527	      6.52951441	      0.44042088	      0.00000000	      0.00000000	    -19.55054496	     -2.51280907	     -2.77118573
      4.21000000	     12.03093997	      0.58818185	     -0.25291787	      0.44989031	      0.97387498	     -0.02302511	    -21.93331546	     -2.18096919	     -6.09055766	     12.54523269	     -4.68528688	      0.00000000	      0.00000000	    -19.42216615	     -1.13063986	      2.67509869	      6.58058922	      0.44439898	      0.00000000	      0.00000000	    -19.47344756	     -2.47071585	     -2.78277297
      4.22000000	     12.01099131	      0.58303729	     -0.24888276	      0.45038956	      0.97386176	     -0.02318814	    -21.94217649	     -2.18339623	     -6.09483557	     12.54059320	     -4.68432522	      0.00000000	      0.00000000	    -19.43231015	     -1.12713800	      2.67685321	      6.57696419	      0.44302455	      0.00000000	      0.00000000	    -19.47046172	     -2.46892686	     -2.78324809
      4.23000000	     12.01412519	      0.64408634	     -0.09399822	      0.45111609	      0.97378539	     -0.02360515	    -22.03930461	     -2.17843278	     -6.38349641	     12.58684980	     -4.59903714	      0.00000000	      0.00000000	    -19.51857766	     -1.09997997	      2.81356792	      6.69029366	      0.38652578	      0.00000000	      0.00000000	    -19.20632359	     -2.35256314	     -2.82540723
      4.24000000	     11.99456998	      0.67751848	      0.06866180	      0.45165865	      0.97375046	     -0.02394933	    -22.08909196	     -2.14602017	     -6.60296871	     12.61633639	     -4.62321790	      0.00000000	      0.00000000	    -19.53960167	     -1.11510131	      3.00025980	      6.74897570	      0.34069349	      0.00000000	      0.00000000	    -19.11182533	     -2.33675918	     -2.86652188
      4.25000000	     11.97705179	      0.67426339	      0.07653721	      0.45208402	      0.97375013	     -0.02409840	    -22.09645240	     -2.14773526	     -6.60471455	     12.61228507	     -4.62365714	      0.00000000	      0.00000000	    -19.54824531	     -1.11142368	      3.00006485	      6.74610383	      0.34074303	      0.00000000	      0.00000000	    -19.11071779	     -2.33562392	     -2.86690788
      4.26000000	     11.96878411	      0.74111306	      0.24867207	      0.45272323	      0.97366920	     -0.02450537	    -22.20159240	     -2.14770454	     -6.84461171	     12.70028171	     -4.59243419	      0.00000000	      0.00000000	    -19.59843797	     -1.07861890	      3.09377559	      6.82803623	      0.32397923	      0.00000000	      0.00000000	    -18.88433577	     -2.23735234	     -2.91005531
      4.27000000	     11.94169018	      0.76438023	      0.37111710	      0.45320093	      0.97363297	     -0.02476710	    -22.23349543	     -2.13237311	     -6.95217739	     12.72573330	     -4.61237298	      0.00000000	      0.00000000	    -19.61070057	     -1.08758551	      3.17348429	      6.87635135	      0.30734060	      0.00000000	      0.00000000	    -18.79547324	     -2.22833328	     -2.93015400
      4.28000000	     11.92391163	      0.76230162	      0.38235610	      0.45359113	      0.97361113	     -0.02492073	    -22.24246030	     -2.13370937	     -6.95928249	     12.72395619	     -4.61290241	      0.00000000	      0.00000000	    -19.61843354	     -1.08530488	      3.17684619	      6.87679319	      0.30654484	      0.00000000	      0.00000000	    -18.78869692	     -2.22621338	     -2.93128120
      4.29000000	     11.86831421	      0.82825867	      0.62710268	      0.45432384	      0.97345667	     -0.02536494	    -22.33615676	     -2.09107731	     -7.32175217	     12.86757428	     -4.60233643	      0.00000000	      0.00000000	    -19.65418183	     -1.09403489	      3.40748985	      7.03609108	      0.25030467	      0.00000000	      0.00000000	    -18.39194795	     -2.13013019	     -2.99392365
      4.30000000	     11.77121125	      0.85547514	      0.81568533	      0.45482444	      0.97333249	     -0.02558779	    -22.30409986	     -2.03555670	     -7.55611276	     12.90318220	     -4.66136991	      0.00000000	      0.00000000	    -19.60385160	     -1.14695912	      3.65512156	      7.12306029	      0.19766726	      0.00000000	      0.00000000	    -18.17303437	     -2.12939386	     -3.05743364
      4.31000000	     11.74764694	      0.86110445	      0.84418916	      0.45526163	      0.97330620	     -0.02566611	    -22.31094972	     -2.03941153	     -7.56032327	     12.89762893	     -4.66112600	      0.00000000	      0.00000000	    -19.61161128	     -1.14784783	      3.65282661	      7.12844843	      0.20063845	      0.00000000	      0.00000000	    -18.16116163	     -2.12559631	     -3.06051700
      4.32000000	     11.65429437	      0.90560580	      1.02648195	      0.45591832	      0.97310064	     -0.02590244	    -22.31434090	     -2.00652036	     -7.78640893	     12.96538199	     -4.59391971	      0.00000000	      0.00000000	    -19.60895182	     -1.16597441	      3.79911182	      7.28533496	      0.17480543	      0.00000000	      0.00000000	    -17.77484458	     -2.06206849	     -3.14712036
      4.33000000	     11.45975774	      0.92873594	      1.20459350	      0.45636151	      0.97291119	     -0.02610161	    -22.13773398	     -1.96513444	     -7.97835962	     12.93326230	     -4.61543299	      0.00000000	      0.00000000	    -19.42422071	     -1.21322243	      4.02578183	      7.32614632	      0.10597020	      0.00000000	      0.00000000	    -17.47516442	     -2.05871640	     -3.28684243
      4.34000000	     11.43796780	      0.93611696	      1.21637804	      0.45680142	      0.97285502	     -0.02602514	    -22.14336991	     -1.96560101	     -7.97853093	     12.92843899	     -4.61437829	      0.00000000	      0.00000000	    -19.43466296	     -1.21634782	      4.02217467	      7.32733386	      0.10880066	      0.00000000	      0.00000000	    -17.47052849	     -2.05825990	     -3.28812212
      4.35000000	     11.34880829	      0.97023099	      1.35683397	      0.45746523	      0.97263929	     -0.02609541	    -22.12852215	     -1.94280965	     -8.10420667	     12.95412975	     -4.51703594	      0.00000000	      0.00000000	    -19.44900187	     -1.23371629	      4.09401675	      7.49746242	      0.10011746	      0.00000000	      0.00000000	    -17.12538034	     -2.06336092	     -3.37239746
